<svg width="723.96875px" height="164px" xmlns="http://www.w3.org/2000/svg" viewBox="-111.984375 -7 723.96875 164" style="background: none;" preserveAspectRatio="xMidYMid"><defs><filter id="editing-golden" x="-100%" y="-100%" width="300%" height="300%"><feFlood flood-color="#fefefe" result="flood"></feFlood><feFlood flood-color="#97da8f" result="flood-light"></feFlood><feComposite operator="in" in="flood" in2="SourceAlpha" result="flood-comp"></feComposite><feGaussianBlur in="flood-comp" stdDeviation="3" result="blur"></feGaussianBlur><feOffset in="blur" dy="3" result="offset-blur"></feOffset><feComponentTransfer in="offset-blur" result="comp-blur"><feFuncA type="linear" slope="0.7" intercept="-0.1"></feFuncA></feComponentTransfer><feSpecularLighting surfaceScale="200" specularConstant="20" specularExponent="1" lighting-color="#fff" in="blur" result="specular"><fePointLight x="-250" y="-250" z="3500"></fePointLight></feSpecularLighting><feComponentTransfer in="specular" result="inspecular"><feFuncA type="linear" slope="-1" intercept="1"></feFuncA></feComponentTransfer><feComposite operator="in" in="flood-light" in2="inspecular" result="inspecular2"></feComposite><feComposite operator="in" in="inspecular2" in2="SourceAlpha" result="light"></feComposite><feMerge><feMergeNode in="comp-blur"></feMergeNode><feMergeNode in="SourceGraphic"></feMergeNode><feMergeNode in="light"></feMergeNode></feMerge></filter></defs><g filter="url(#editing-golden)"><g transform="translate(-10.284998416900635, 106.16500282287598)"><path d="M58.16-10.54L58.16 0L20.14 0L20.14 0Q18.68 0 17.00-0.34L17.00-0.34L17.00-0.34Q15.32-0.69 13.68-1.42L13.68-1.42L13.68-1.42Q12.04-2.15 10.54-3.30L10.54-3.30L10.54-3.30Q9.04-4.46 7.88-6.10L7.88-6.10L7.88-6.10Q6.73-7.74 6.04-9.91L6.04-9.91L6.04-9.91Q5.35-12.08 5.35-14.79L5.35-14.79L5.35-43.32L5.35-43.32Q5.35-44.78 5.69-46.46L5.69-46.46L5.69-46.46Q6.04-48.15 6.77-49.79L6.77-49.79L6.77-49.79Q7.50-51.43 8.67-52.93L8.67-52.93L8.67-52.93Q9.85-54.43 11.49-55.58L11.49-55.58L11.49-55.58Q13.13-56.74 15.28-57.43L15.28-57.43L15.28-57.43Q17.43-58.12 20.14-58.12L20.14-58.12L58.16-58.12L58.16-47.58L20.14-47.58L20.14-47.58Q18.08-47.58 16.98-46.48L16.98-46.48L16.98-46.48Q15.89-45.39 15.89-43.24L15.89-43.24L15.89-14.79L15.89-14.79Q15.89-12.77 17.00-11.65L17.00-11.65L17.00-11.65Q18.12-10.54 20.14-10.54L20.14-10.54L58.16-10.54ZM115.67-29.06L115.67 0L105.13 0L105.13-29.06L105.13-29.06Q105.13-31.13 104.07-32.20L104.07-32.20L104.07-32.20Q103.02-33.27 100.91-33.27L100.91-33.27L81.91-33.27L81.91-43.81L100.91-43.81L100.91-43.81Q102.41-43.81 104.07-43.47L104.07-43.47L104.07-43.47Q105.74-43.12 107.38-42.39L107.38-42.39L107.38-42.39Q109.02-41.66 110.52-40.51L110.52-40.51L110.52-40.51Q112.02-39.35 113.15-37.71L113.15-37.71L113.15-37.71Q114.29-36.07 114.98-33.92L114.98-33.92L114.98-33.92Q115.67-31.77 115.67-29.06L115.67-29.06ZM77.65-62.33L77.65 0L67.11 0L67.11-62.33L77.65-62.33ZM170.54-29.30L170.54-14.51L170.54-14.51Q170.54-12.32 169.77-9.79L169.77-9.79L169.77-9.79Q169.00-7.25 167.28-5.09L167.28-5.09L167.28-5.09Q165.55-2.92 162.78-1.46L162.78-1.46L162.78-1.46Q160.00 0 156.03 0L156.03 0L137.02 0L137.02 0Q134.83 0 132.30-0.77L132.30-0.77L132.30-0.77Q129.77-1.54 127.60-3.26L127.60-3.26L127.60-3.26Q125.43-4.98 123.97-7.76L123.97-7.76L123.97-7.76Q122.51-10.54 122.51-14.51L122.51-14.51L122.51-14.51Q122.51-16.70 123.28-19.25L123.28-19.25L123.28-19.25Q124.05-21.80 125.78-23.97L125.78-23.97L125.78-23.97Q127.50-26.14 130.28-27.60L130.28-27.60L130.28-27.60Q133.05-29.06 137.02-29.06L137.02-29.06L156.03-29.06L156.03-19.01L137.02-19.01L137.02-19.01Q134.88-19.01 133.70-17.69L133.70-17.69L133.70-17.69Q132.52-16.37 132.52-14.43L132.52-14.43L132.52-14.43Q132.52-12.36 133.88-11.21L133.88-11.21L133.88-11.21Q135.24-10.05 137.10-10.05L137.10-10.05L156.03-10.05L156.03-10.05Q158.18-10.05 159.35-11.35L159.35-11.35L159.35-11.35Q160.53-12.64 160.53-14.59L160.53-14.59L160.53-29.30L160.53-29.30Q160.53-31.37 159.25-32.58L159.25-32.58L159.25-32.58Q157.98-33.80 156.03-33.80L156.03-33.80L132.89-33.80L132.89-43.81L156.03-43.81L156.03-43.81Q158.22-43.81 160.75-43.04L160.75-43.04L160.75-43.04Q163.28-42.27 165.45-40.55L165.45-40.55L165.45-40.55Q167.62-38.83 169.08-36.05L169.08-36.05L169.08-36.05Q170.54-33.27 170.54-29.30L170.54-29.30ZM217.88-43.81L217.88-33.27L194.17-33.27L194.17-33.27Q192.02-33.27 190.92-32.20L190.92-32.20L190.92-32.20Q189.83-31.13 189.83-29.06L189.83-29.06L189.83 0L179.29 0L179.29-29.06L179.29-29.06Q179.29-31.77 179.98-33.92L179.98-33.92L179.98-33.92Q180.67-36.07 181.83-37.71L181.83-37.71L181.83-37.71Q182.98-39.35 184.48-40.51L184.48-40.51L184.48-40.51Q185.98-41.66 187.62-42.39L187.62-42.39L187.62-42.39Q189.26-43.12 190.94-43.47L190.94-43.47L190.94-43.47Q192.63-43.81 194.09-43.81L194.09-43.81L217.88-43.81ZM266.63-29.30L266.63-14.51L266.63-14.51Q266.63-12.32 265.86-9.79L265.86-9.79L265.86-9.79Q265.09-7.25 263.37-5.09L263.37-5.09L263.37-5.09Q261.64-2.92 258.87-1.46L258.87-1.46L258.87-1.46Q256.09 0 252.12 0L252.12 0L233.11 0L233.11 0Q230.92 0 228.39-0.77L228.39-0.77L228.39-0.77Q225.86-1.54 223.69-3.26L223.69-3.26L223.69-3.26Q221.52-4.98 220.06-7.76L220.06-7.76L220.06-7.76Q218.60-10.54 218.60-14.51L218.60-14.51L218.60-14.51Q218.60-16.70 219.37-19.25L219.37-19.25L219.37-19.25Q220.14-21.80 221.87-23.97L221.87-23.97L221.87-23.97Q223.59-26.14 226.37-27.60L226.37-27.60L226.37-27.60Q229.14-29.06 233.11-29.06L233.11-29.06L252.12-29.06L252.12-19.01L233.11-19.01L233.11-19.01Q230.97-19.01 229.79-17.69L229.79-17.69L229.79-17.69Q228.61-16.37 228.61-14.43L228.61-14.43L228.61-14.43Q228.61-12.36 229.97-11.21L229.97-11.21L229.97-11.21Q231.33-10.05 233.19-10.05L233.19-10.05L252.12-10.05L252.12-10.05Q254.27-10.05 255.44-11.35L255.44-11.35L255.44-11.35Q256.62-12.64 256.62-14.59L256.62-14.59L256.62-29.30L256.62-29.30Q256.62-31.37 255.34-32.58L255.34-32.58L255.34-32.58Q254.07-33.80 252.12-33.80L252.12-33.80L228.98-33.80L228.98-43.81L252.12-43.81L252.12-43.81Q254.31-43.81 256.84-43.04L256.84-43.04L256.84-43.04Q259.38-42.27 261.54-40.55L261.54-40.55L261.54-40.55Q263.71-38.83 265.17-36.05L265.17-36.05L265.17-36.05Q266.63-33.27 266.63-29.30L266.63-29.30ZM318.06-10.54L318.06 0L289.49 0L289.49 0Q287.30 0 284.70-0.77L284.70-0.77L284.70-0.77Q282.11-1.54 279.90-3.30L279.90-3.30L279.90-3.30Q277.69-5.07 276.21-7.88L276.21-7.88L276.21-7.88Q274.73-10.70 274.73-14.79L274.73-14.79L274.73-29.06L274.73-29.06Q274.73-30.56 275.08-32.22L275.08-32.22L275.08-32.22Q275.42-33.88 276.15-35.52L276.15-35.52L276.15-35.52Q276.88-37.16 278.04-38.66L278.04-38.66L278.04-38.66Q279.19-40.16 280.83-41.30L280.83-41.30L280.83-41.30Q282.48-42.43 284.62-43.12L284.62-43.12L284.62-43.12Q286.77-43.81 289.49-43.81L289.49-43.81L318.06-43.81L318.06-33.27L289.49-33.27L289.49-33.27Q287.42-33.27 286.35-32.22L286.35-32.22L286.35-32.22Q285.27-31.17 285.27-28.98L285.27-28.98L285.27-14.79L285.27-14.79Q285.27-12.73 286.37-11.63L286.37-11.63L286.37-11.63Q287.46-10.54 289.57-10.54L289.57-10.54L318.06-10.54ZM366.61-43.81L366.61-33.27L348.21-33.27L348.21 0L337.55 0L337.55-33.27L323.85-33.27L323.85-43.81L337.55-43.81L337.55-58.12L348.21-58.12L348.21-43.81L366.61-43.81ZM420.51-29.30L420.51-29.30L420.51-29.30Q420.51-27.11 419.74-24.58L419.74-24.58L419.74-24.58Q418.97-22.05 417.25-19.88L417.25-19.88L417.25-19.88Q415.53-17.71 412.75-16.25L412.75-16.25L412.75-16.25Q409.97-14.79 406.00-14.79L406.00-14.79L387.00-14.79L387.00-24.80L406.00-24.80L406.00-24.80Q408.15-24.80 409.33-26.12L409.33-26.12L409.33-26.12Q410.50-27.44 410.50-29.38L410.50-29.38L410.50-29.38Q410.50-31.45 409.18-32.62L409.18-32.62L409.18-32.62Q407.87-33.80 406.00-33.80L406.00-33.80L387.00-33.80L387.00-33.80Q384.85-33.80 383.67-32.48L383.67-32.48L383.67-32.48Q382.50-31.17 382.50-29.22L382.50-29.22L382.50-14.51L382.50-14.51Q382.50-12.40 383.81-11.23L383.81-11.23L383.81-11.23Q385.13-10.05 387.08-10.05L387.08-10.05L406.00-10.05L406.00 0L387.00 0L387.00 0Q384.81 0 382.27-0.77L382.27-0.77L382.27-0.77Q379.74-1.54 377.57-3.26L377.57-3.26L377.57-3.26Q375.40-4.98 373.95-7.76L373.95-7.76L373.95-7.76Q372.49-10.54 372.49-14.51L372.49-14.51L372.49-29.30L372.49-29.30Q372.49-31.49 373.26-34.02L373.26-34.02L373.26-34.02Q374.03-36.56 375.75-38.72L375.75-38.72L375.75-38.72Q377.47-40.89 380.25-42.35L380.25-42.35L380.25-42.35Q383.02-43.81 387.00-43.81L387.00-43.81L406.00-43.81L406.00-43.81Q408.19-43.81 410.72-43.04L410.72-43.04L410.72-43.04Q413.26-42.27 415.43-40.55L415.43-40.55L415.43-40.55Q417.59-38.83 419.05-36.05L419.05-36.05L419.05-36.05Q420.51-33.27 420.51-29.30ZM465.94-43.81L465.94-33.27L442.23-33.27L442.23-33.27Q440.09-33.27 438.99-32.20L438.99-32.20L438.99-32.20Q437.90-31.13 437.90-29.06L437.90-29.06L437.90 0L427.36 0L427.36-29.06L427.36-29.06Q427.36-31.77 428.05-33.92L428.05-33.92L428.05-33.92Q428.74-36.07 429.89-37.71L429.89-37.71L429.89-37.71Q431.05-39.35 432.55-40.51L432.55-40.51L432.55-40.51Q434.05-41.66 435.69-42.39L435.69-42.39L435.69-42.39Q437.33-43.12 439.01-43.47L439.01-43.47L439.01-43.47Q440.69-43.81 442.15-43.81L442.15-43.81L465.94-43.81ZM515.22-14.79L515.22-14.79L515.22-14.79Q515.22-12.08 514.54-9.91L514.54-9.91L514.54-9.91Q513.85-7.74 512.71-6.10L512.71-6.10L512.71-6.10Q511.58-4.46 510.08-3.30L510.08-3.30L510.08-3.30Q508.58-2.15 506.94-1.42L506.94-1.42L506.94-1.42Q505.29-0.69 503.61-0.34L503.61-0.34L503.61-0.34Q501.93 0 500.43 0L500.43 0L471.90 0L471.90-10.54L500.35-10.54L500.35-10.54Q502.50-10.54 503.59-11.63L503.59-11.63L503.59-11.63Q504.69-12.73 504.69-14.79L504.69-14.79L504.69-14.79Q504.48-19.01 500.43-19.01L500.43-19.01L484.10-19.01L484.10-19.01Q480.61-19.01 478.18-20.22L478.18-20.22L478.18-20.22Q475.75-21.44 474.23-23.26L474.23-23.26L474.23-23.26Q472.71-25.09 472.04-27.19L472.04-27.19L472.04-27.19Q471.37-29.30 471.37-31.13L471.37-31.13L471.37-31.13Q471.37-34.65 472.63-37.06L472.63-37.06L472.63-37.06Q473.89-39.47 475.79-40.97L475.79-40.97L475.79-40.97Q477.70-42.47 479.92-43.14L479.92-43.14L479.92-43.14Q482.15-43.81 484.10-43.81L484.10-43.81L510.00-43.81L510.00-33.27L484.18-33.27L484.18-33.27Q483.37-33.27 482.90-33.09L482.90-33.09L482.90-33.09Q482.44-32.91 482.21-32.60L482.21-32.60L482.21-32.60Q481.99-32.30 481.95-31.96L481.95-31.96L481.95-31.96Q481.91-31.61 481.91-31.29L481.91-31.29L481.91-31.29Q481.95-30.64 482.15-30.27L482.15-30.27L482.15-30.27Q482.36-29.91 482.66-29.75L482.66-29.75L482.66-29.75Q482.96-29.58 483.35-29.56L483.35-29.56L483.35-29.56Q483.73-29.54 484.10-29.54L484.10-29.54L500.43-29.54L500.43-29.54Q504.48-29.54 507.32-28.09L507.32-28.09L507.32-28.09Q510.16-26.63 511.90-24.42L511.90-24.42L511.90-24.42Q513.64-22.21 514.43-19.62L514.43-19.62L514.43-19.62Q515.22-17.02 515.22-14.79Z" fill="#30b9c7"></path></g></g><style>text {
  font-size: 64px;
  font-family: Arial Black;
  dominant-baseline: central;
  text-anchor: middle;
}</style></svg>