<?xml version="1.0" standalone="no"?>
<!DOCTYPE svg PUBLIC "-//W3C//DTD SVG 20010904//EN"
 "http://www.w3.org/TR/2001/REC-SVG-20010904/DTD/svg10.dtd">
<svg version="1.0" xmlns="http://www.w3.org/2000/svg"
 width="400.000000pt" height="400.000000pt" viewBox="0 0 400.000000 400.000000"
 preserveAspectRatio="xMidYMid meet">
<metadata>
Created by potrace 1.14, written by Peter Selinger 2001-2017
</metadata>
<g transform="translate(0.000000,400.000000) scale(0.100000,-0.100000)"
fill="#000000" stroke="none">
<path d="M801 3906 c-11 -13 -3 -67 47 -318 34 -167 64 -316 67 -333 3 -16 16
-81 28 -143 l23 -112 -40 5 c-23 3 -48 8 -56 10 -8 2 -32 6 -52 9 -34 5 -165
28 -228 40 -14 3 -81 14 -150 26 -69 12 -136 23 -150 26 -14 2 -40 7 -59 10
-18 3 -43 7 -54 9 -26 6 -57 -12 -57 -31 0 -16 37 -74 105 -164 23 -30 127
-172 230 -315 104 -143 199 -274 212 -291 l23 -31 -127 -37 c-71 -20 -157 -46
-193 -56 -36 -10 -84 -24 -107 -30 -57 -14 -77 -35 -62 -63 7 -12 118 -129
248 -259 130 -131 237 -241 238 -245 1 -4 -90 -75 -203 -158 -198 -146 -233
-180 -207 -206 6 -6 57 -24 114 -40 398 -113 381 -107 368 -132 -7 -12 -52
-94 -100 -183 -49 -89 -89 -171 -89 -183 0 -29 31 -39 89 -30 25 3 71 10 101
13 75 9 244 30 330 41 l46 6 21 -50 c89 -201 283 -372 508 -446 101 -33 156
-40 290 -39 220 1 405 82 541 234 40 45 104 137 104 150 0 4 63 -9 140 -29
181 -47 182 -47 167 79 -4 30 -9 76 -13 103 -6 45 -6 47 17 48 13 1 35 2 49 4
30 3 164 13 275 21 157 11 156 4 35 246 -104 208 -117 238 -102 238 6 0 48 17
94 39 45 21 126 57 178 81 52 24 98 48 102 54 21 31 0 50 -212 197 -121 84
-217 156 -213 160 5 4 49 28 98 54 50 26 117 62 150 80 33 18 114 61 180 95
137 72 157 86 153 113 -4 23 -4 24 -133 81 -55 24 -130 58 -168 75 -37 17 -69
31 -71 31 -2 0 -42 17 -88 38 -45 22 -105 47 -132 58 -26 10 -50 24 -53 31 -2
6 75 194 172 418 181 417 193 455 145 455 -11 0 -97 -18 -192 -41 -95 -22
-184 -43 -198 -45 -14 -3 -63 -14 -110 -25 -123 -30 -380 -89 -412 -95 -16 -3
-28 -2 -29 3 0 4 -2 22 -3 38 -2 17 -7 64 -11 105 -3 41 -8 92 -11 112 -2 21
-6 68 -9 105 -3 38 -7 84 -10 103 -2 19 -7 64 -10 100 -15 180 -21 200 -54
200 -9 0 -147 -130 -306 -290 -159 -159 -293 -290 -296 -290 -3 0 -199 128
-434 285 -235 157 -437 288 -449 291 -14 3 -27 -1 -35 -10z"/>
</g>
</svg>
